<?xml version="1.0" encoding="iso-8859-1"?>
<!-- Generator: Adobe Illustrator 19.0.0, SVG Export Plug-In . SVG Version: 6.00 Build 0)  -->
<svg version="1.1" id="Layer_1" xmlns="http://www.w3.org/2000/svg" xmlns:xlink="http://www.w3.org/1999/xlink" x="0px" y="0px" fill="#ffffff"
	 viewBox="0 0 490.399 490.399" style="enable-background:new 0 0 490.399 490.399;" xml:space="preserve">
<g>
	<g>
		<path d="M490.086,464.75l-28.1-294.4c-1-10.4-10.4-18.7-20.8-18.7h-63.5v-17.7c0-72.8-59.3-133.2-133.2-133.2
			c-72.8,0-133.2,59.3-133.2,133.2v17.7h-61.3c-11.4,0-19.8,8.3-20.8,18.7l-29.1,297.5c-1.4,17.7,14.6,21.8,20.8,21.8h449.4
			C494.486,488.25,490.086,465.85,490.086,464.75z M152.986,133.95c0-51,41.6-92.6,92.6-92.6s92.6,41.6,92.6,92.6v17.7h-185.2
			L152.986,133.95L152.986,133.95z M43.786,449.15l25-257h42.7v33.3c0,11.4,9.4,20.8,20.8,20.8c11.4,0,20.8-9.4,20.8-20.8v-33.3
			h185.2v33.3c0,11.4,9.4,20.8,20.8,20.8c10.4,0,19.8-9.4,18.7-20.8v-33.3h44.7l25,257H43.786z"/>
		<path d="M306.986,314.95h-32.3c-8.3,0-14.6-6.2-14.6-14.6v-31.2c0-8.3-6.2-14.6-14.6-14.6s-14.6,6.2-14.6,14.6v31.2
			c0,8.3-6.2,14.6-14.6,14.6h-32.3c-8.3,0-14.6,6.2-14.6,14.6c0,0-0.7,15.1,14.6,15.6h32.5c8.3,0,14.6,6.2,14.6,14.6v31.2
			c0,8.3,6.2,14.6,14.6,14.6c8.4,0,14.6-6.2,14.6-14.6v-31.2c0-8.3,6.2-14.6,14.6-14.6h32.3c15.7-1.3,14.6-15.6,14.6-15.6
			C321.586,321.15,315.286,314.95,306.986,314.95z"/>
	</g>
</g>
<g>
</g>
<g>
</g>
<g>
</g>
<g>
</g>
<g>
</g>
<g>
</g>
<g>
</g>
<g>
</g>
<g>
</g>
<g>
</g>
<g>
</g>
<g>
</g>
<g>
</g>
<g>
</g>
<g>
</g>
</svg>
